<?xml version="1.0" encoding="UTF-8" standalone="no"?>
<svg
   xmlns:dc="http://purl.org/dc/elements/1.1/"
   xmlns:cc="http://creativecommons.org/ns#"
   xmlns:rdf="http://www.w3.org/1999/02/22-rdf-syntax-ns#"
   xmlns:svg="http://www.w3.org/2000/svg"
   xmlns="http://www.w3.org/2000/svg"
   xmlns:sodipodi="http://sodipodi.sourceforge.net/DTD/sodipodi-0.dtd"
   xmlns:inkscape="http://www.inkscape.org/namespaces/inkscape"
   width="100mm"
   height="100mm"
   viewBox="0 0 100 100"
   version="1.1"
   id="svg8"
   sodipodi:docname="wikipedia_fillrules.svg"
   inkscape:version="1.0.1 (3bc2e813f5, 2020-09-07)">
  <defs
     id="defs2" />
  <sodipodi:namedview
     id="base"
     pagecolor="#ffffff"
     bordercolor="#666666"
     borderopacity="1.0"
     inkscape:pageopacity="0.0"
     inkscape:pageshadow="2"
     inkscape:zoom="1.979899"
     inkscape:cx="313.73792"
     inkscape:cy="186.50274"
     inkscape:document-units="mm"
     inkscape:current-layer="layer1"
     inkscape:document-rotation="0"
     showgrid="false"
     inkscape:window-width="1680"
     inkscape:window-height="997"
     inkscape:window-x="-8"
     inkscape:window-y="-8"
     inkscape:window-maximized="1"
     inkscape:snap-global="false" />
  <metadata
     id="metadata5">
    <rdf:RDF>
      <cc:Work
         rdf:about="">
        <dc:format>image/svg+xml</dc:format>
        <dc:type
           rdf:resource="http://purl.org/dc/dcmitype/StillImage" />
        <dc:title />
      </cc:Work>
    </rdf:RDF>
  </metadata>
  <g
     inkscape:label="Layer 1"
     inkscape:groupmode="layer"
     id="layer1"
     style="display:inline">
    <path
       d="m 62.594174,43.314825 c -3.273543,-6.751687 -1.227578,-15.54934 5.114915,-17.39071 6.342493,-1.84137 16.98152,-2.455159 21.891837,6.751688 2.923506,5.481585 3.887333,14.321762 -0.81839,22.301028 -4.705723,7.979266 -22.301025,14.93555 -22.301025,14.93555 L 56.865472,47.406757 72.005617,61.319324 c 0,0 4.501122,-0.409192 7.365476,-7.570071 2.864352,-7.160883 1.227581,-37.236581 -4.296528,-36.009002 -5.524107,1.22758 -9.741311,24.602341 0.818386,30.280296 7.778857,4.182692 24.142399,-4.501125 21.278047,10.229829 -1.18577,6.098251 -6.54709,6.137898 -11.252813,4.910319 -4.705723,-1.227581 -8.633064,-1.815224 -15.958532,-9.002251 -3.135722,-3.076457 -5.193279,-6.36346 -7.365479,-10.843619 z"
       id="path2989"
       style="fill:#038bff;fill-opacity:1;stroke:#ff0101;stroke-width:0.3294;stroke-linecap:butt;stroke-linejoin:miter;stroke-miterlimit:4;stroke-dasharray:none;stroke-opacity:1" />
    <path
       d="m 8.171482,43.314825 c -3.2735459,-6.751687 -1.227578,-15.54934 5.114916,-17.39071 6.342492,-1.84137 16.981514,-2.455159 21.891836,6.751688 2.923509,5.481585 3.887334,14.321762 -0.818389,22.301028 -4.705721,7.979266 -22.30103,14.93555 -22.30103,14.93555 L 2.4427767,47.406757 17.582926,61.319324 c 0,0 4.501122,-0.409192 7.365475,-7.570071 2.864352,-7.160883 1.227582,-37.236581 -4.296529,-36.009002 -5.524104,1.22758 -9.741311,24.602341 0.818389,30.280296 7.778857,4.182692 24.142401,-4.501125 21.278047,10.229829 -1.185769,6.098251 -6.547092,6.137898 -11.252815,4.910319 -4.705722,-1.227581 -8.633064,-1.815224 -15.95853,-9.002251 -3.135729,-3.076457 -5.193279,-6.36346 -7.365481,-10.843619 z"
       id="path3759"
       style="fill:#16fc00;fill-opacity:1;fill-rule:evenodd;stroke:#e50000;stroke-width:0.3294;stroke-linecap:butt;stroke-linejoin:miter;stroke-miterlimit:4;stroke-dasharray:none;stroke-opacity:0.99563318" />
  </g>
</svg>
