<?xml version="1.0" encoding="UTF-8" standalone="no"?>
<!-- Created with Inkscape (http://www.inkscape.org/) -->

<svg
   xmlns:dc="http://purl.org/dc/elements/1.1/"
   xmlns:cc="http://creativecommons.org/ns#"
   xmlns:rdf="http://www.w3.org/1999/02/22-rdf-syntax-ns#"
   xmlns:svg="http://www.w3.org/2000/svg"
   xmlns="http://www.w3.org/2000/svg"
   xmlns:sodipodi="http://sodipodi.sourceforge.net/DTD/sodipodi-0.dtd"
   xmlns:inkscape="http://www.inkscape.org/namespaces/inkscape"
   width="210mm"
   height="297mm"
   viewBox="0 0 210 297"
   version="1.1"
   id="svg8"
   inkscape:version="0.92.3 (2405546, 2018-03-11)"
   sodipodi:docname="pikachu.svg">
  <defs
     id="defs2" />
  <sodipodi:namedview
     id="base"
     pagecolor="#ffffff"
     bordercolor="#666666"
     borderopacity="1.0"
     inkscape:pageopacity="0.0"
     inkscape:pageshadow="2"
     inkscape:zoom="0.49497475"
     inkscape:cx="418.81514"
     inkscape:cy="529.55082"
     inkscape:document-units="mm"
     inkscape:current-layer="layer1"
     showgrid="false"
     inkscape:window-width="1680"
     inkscape:window-height="997"
     inkscape:window-x="-8"
     inkscape:window-y="-8"
     inkscape:window-maximized="1" />
  <metadata
     id="metadata5">
    <rdf:RDF>
      <cc:Work
         rdf:about="">
        <dc:format>image/svg+xml</dc:format>
        <dc:type
           rdf:resource="http://purl.org/dc/dcmitype/StillImage" />
        <dc:title></dc:title>
      </cc:Work>
    </rdf:RDF>
  </metadata>
  <g
     inkscape:label="Layer 1"
     inkscape:groupmode="layer"
     id="layer1">
    <path
       style="fill:#00ff00;stroke-width:0.4437584;fill-opacity:1"
       d="m 140.60568,223.47847 c -0.61017,-0.24672 -1.86431,-0.96914 -2.78697,-1.60537 -1.82731,-1.26003 -8.8844,-9.46811 -12.12014,-14.09687 -1.1366,-1.62592 -2.44741,-2.99396 -2.98861,-3.1191 -0.53021,-0.12258 -2.96092,-0.52016 -5.40159,-0.88351 -2.44068,-0.36335 -7.23327,-1.08357 -10.6502,-1.60049 -6.816256,-1.0312 -10.065338,-0.96988 -17.133846,0.32331 -3.792305,0.69381 -4.311365,0.91543 -6.151099,2.62624 -6.524739,6.06749 -19.469832,12.18296 -25.788635,12.18296 -2.793055,0 -3.064498,-0.0896 -4.13798,-1.36533 -0.631864,-0.75092 -1.148842,-1.65945 -1.148842,-2.01895 0,-1.67748 4.020388,-7.76879 7.657397,-11.60173 l 2.640406,-2.78265 -1.199079,-1.57208 c -2.682595,-3.51705 -4.264931,-6.30964 -5.620169,-9.91871 -1.314394,-3.50031 -1.424881,-4.20371 -1.398558,-8.90378 0.0399,-7.12549 0.801637,-12.82661 2.81629,-21.07852 1.654146,-6.77528 1.967159,-8.57258 3.091332,-17.75033 0.26906,-2.1966 0.899787,-5.7615 1.401616,-7.922 0.616593,-2.65458 0.782013,-4.22042 0.510207,-4.82957 -0.221219,-0.49576 -2.289474,-2.53191 -4.59613,-4.52479 -5.127868,-4.4303 -9.354569,-9.6013 -10.639511,-13.01649 -0.816675,-2.1706 -0.931422,-3.23115 -0.779515,-7.20474 0.164253,-4.296652 0.323655,-4.996357 2.04712,-8.986034 1.100303,-2.547102 2.237518,-6.197352 2.765009,-8.875167 1.069742,-5.430525 1.892648,-8.095032 3.587623,-11.616432 0.696315,-1.446639 1.266028,-2.667251 1.266028,-2.712465 0,-0.04522 -1.747298,-0.223131 -3.882885,-0.395363 C 41.999778,69.426846 28.795424,66.466014 21.706922,63.445711 11.57307,59.12783 5.600342,55.509109 2.6002532,51.869483 1.0076225,49.937346 0.91722138,48.91632 2.2640116,48.071843 4.5032534,46.667777 15.48944,45.839609 23.71545,46.454778 c 14.817201,1.108079 16.552991,1.466453 44.180163,9.121543 2.404713,0.666311 3.276121,0.494928 9.252623,-1.819752 6.403443,-2.480028 11.37174,-3.324185 19.969127,-3.392927 7.723507,-0.06175 10.387147,0.282865 16.942817,2.192056 2.11857,0.616983 4.11763,1.019832 4.44237,0.89522 0.32475,-0.124616 2.21761,-2.897077 4.20637,-6.161031 3.46396,-5.685039 4.82972,-7.630473 11.20769,-15.964594 7.16708,-9.365275 22.10505,-21.9392151 31.9001,-26.8517183 4.9172,-2.4661197 7.31585,-2.8021982 7.56174,-1.0594874 0.53209,3.7711136 -4.51009,18.0747907 -9.18427,26.0539757 -3.83949,6.554307 -15.0695,21.965201 -19.36404,26.573179 -3.15572,3.386054 -10.69527,11.910174 -10.81181,12.223706 -0.084,0.226175 0.24551,1.25869 0.73239,2.294489 1.01138,2.15162 2.54505,6.692977 3.24805,9.617824 l 0.47829,1.989888 13.82236,-14.106422 13.82237,-14.106419 6.21262,3.939865 c 3.41693,2.166921 7.95991,5.074475 10.09549,6.461228 2.1356,1.386755 3.8829,2.429879 3.8829,2.318061 0,-0.111818 0.52838,0.286389 1.17418,0.884904 0.64581,0.598515 1.34245,1.088207 1.54808,1.088207 0.20564,0 0.72563,0.288895 1.15554,0.641989 0.42992,0.353093 2.67873,1.98786 4.99736,3.63281 6.79652,4.821781 11.98147,9.116572 11.98147,9.92448 0,0.977604 -0.60817,1.484029 -6.43449,5.357969 -2.68474,1.785093 -6.27918,4.276935 -7.98765,5.53743 -4.77483,3.52283 -18.63785,15.251299 -18.63785,15.768089 0,0.25249 1.29799,1.01092 2.88443,1.68542 4.68489,1.99186 18.21608,8.52785 20.86208,10.07704 2.85742,1.67296 4.32824,3.13263 3.73384,3.70548 -0.66819,0.64396 -7.10025,4.60198 -13.05821,8.03546 -3.05083,1.75816 -7.50595,4.39645 -9.90025,5.86287 l -4.35328,2.66623 6.57207,3.61996 c 6.97268,3.84062 13.00657,7.68847 13.00657,8.29438 0,0.20091 -2.44622,1.80118 -5.43604,3.55616 -5.92083,3.47542 -10.27307,6.26966 -25.95637,16.66467 -8.37758,5.55272 -10.36368,7.0615 -10.5792,8.03673 -1.5885,7.18805 -2.88208,10.25914 -6.15547,14.6137 l -2.06707,2.7498 1.14431,3.62239 c 2.48225,7.8577 3.07637,17.40031 1.23732,19.87352 -0.9651,1.29791 -3.44613,1.71092 -5.43849,0.90532 z m 3.36383,-2.66982 c -0.16532,-1.24623 -0.77926,-3.53761 -1.36431,-5.09195 -0.58506,-1.55436 -0.89754,-2.92881 -0.69439,-3.05436 0.668,-0.41286 1.42436,1.0094 2.25581,4.24184 1.18448,4.60483 1.76416,4.85791 1.76416,0.77022 0,-6.42415 -2.24131,-15.45655 -3.83541,-15.45655 -0.34089,0 -1.81217,0.4845 -3.2695,1.07667 -2.68949,1.09283 -5.61476,1.79656 -9.42508,2.26734 -1.15933,0.14324 -2.10786,0.35797 -2.10786,0.47716 0,1.47192 4.92368,8.05751 8.95851,11.98231 4.20847,4.09372 5.28842,4.52638 3.44148,1.37873 -0.74752,-1.27396 -1.68251,-2.96279 -2.07775,-3.75295 -0.70565,-1.41071 -0.58652,-2.23484 0.24845,-1.7188 0.48781,0.30149 4.51709,7.30457 4.51709,7.85092 0,0.31575 1.24602,1.24362 1.72127,1.28177 0.0925,0.008 0.0329,-1.00614 -0.13247,-2.25235 z m -80.044651,-6.12078 c 6.426056,-2.17213 16.508445,-7.85357 17.087178,-9.62862 0.104294,-0.31987 -1.363972,-0.57955 -4.281976,-0.75732 -3.148972,-0.19185 -5.379789,-0.61052 -7.669174,-1.43935 -4.946056,-1.79062 -4.991439,-1.79213 -6.962658,-0.23089 -2.858527,2.26399 -8.519882,9.88983 -7.843939,10.56578 0.155497,0.15549 1.233515,-0.65378 2.395589,-1.79839 1.16208,-1.14459 2.255779,-2.08109 2.430447,-2.08109 0.751403,0 0.175028,0.90327 -1.901216,2.97952 -2.091309,2.09131 -2.732207,3.2331 -1.814776,3.2331 0.222211,0 2.012541,-1.31404 3.978515,-2.92009 3.152987,-2.57574 4.492636,-3.17193 4.492636,-1.99937 0,0.19431 -1.164963,1.17045 -2.588806,2.16922 -1.423843,0.99877 -2.846133,2.12601 -3.160643,2.50497 -0.932038,1.12304 1.478679,0.87636 5.838823,-0.59747 z m 70.933311,-12.83588 c 7.90234,-2.74738 12.39097,-7.78605 14.42091,-16.18801 0.80191,-3.31909 1.33186,-11.08014 0.9101,-13.32827 l -0.30479,-1.62471 h -3.55913 c -6.3576,0 -6.78162,-1.20608 -1.94562,-5.53427 1.83161,-1.63929 3.44391,-3.43359 3.58289,-3.98735 0.23923,-0.95313 -0.96351,-5.59793 -3.00448,-11.6029 l -0.92059,-2.70857 -4.05639,0.21218 c -3.33165,0.17427 -4.16013,0.0872 -4.63699,-0.48739 -0.91056,-1.09717 -0.18757,-2.49438 2.76069,-5.33516 l 2.69431,-2.59609 -1.23766,-3.39465 c -4.30047,-11.79534 -4.39811,-12.14263 -4.38062,-15.58271 0.01,-1.83892 0.43488,-6.93793 0.94563,-11.33114 1.34259,-11.548286 1.28396,-22.051723 -0.15537,-27.834254 -0.95216,-3.825282 -3.16184,-9.663332 -3.65755,-9.663332 -0.10086,0 -0.76114,0.298804 -1.46736,0.664009 -3.31249,1.712952 -1.02481,-1.373716 9.53665,-12.867365 8.70397,-9.472214 13.43006,-15.934521 14.76632,-20.191007 0.61621,-1.962835 0.76016,-4.047938 0.73526,-10.650202 -0.0334,-8.844954 -0.4277,-11.664852 -1.66453,-11.903044 -1.01894,-0.196231 -9.94575,7.303128 -13.80278,11.595643 -4.60079,5.120248 -12.41536,15.875901 -17.52952,24.12691 -2.545,4.106003 -5.01453,7.864841 -5.48785,8.352975 -0.85429,0.881038 -0.85852,0.870881 -0.57845,-1.390655 l 0.28213,-2.278166 -1.84739,-0.739178 c -6.5241,-2.61043 -15.932146,-3.457721 -25.721761,-2.316502 -6.950511,0.810249 -11.861084,2.221201 -17.381633,4.99426 -4.466388,2.243537 -5.158087,2.39315 -4.182844,0.904735 l 0.686272,-1.047385 -4.296242,-1.374231 C 58.820736,54.974389 44.700576,51.612423 37.875621,50.440354 34.946815,49.937385 30.18064,49.403144 27.28412,49.253159 l -5.2664,-0.272703 0.30933,1.068831 c 0.17013,0.587857 0.416925,1.468211 0.54843,1.956345 0.318387,1.181813 4.894647,9.400609 6.199706,11.134444 0.567889,0.75447 1.682003,1.703016 2.475809,2.107883 2.479236,1.264498 15.273058,3.432432 20.840237,3.531416 4.563846,0.08114 5.134346,2.04e-4 6.409536,-0.90938 1.276896,-0.910805 2.815925,-1.331812 2.815925,-0.770307 0,0.125482 -0.898357,1.331089 -1.996353,2.679129 -3.43603,4.218518 -4.969335,7.957503 -6.632869,16.174332 -0.568243,2.806772 -1.554965,6.238653 -2.192713,7.626397 -0.637747,1.387748 -1.15954,2.603318 -1.15954,2.701264 0,0.09795 0.779728,0.997751 1.732734,1.999562 3.266164,3.433458 3.595498,9.496898 0.726996,13.384938 -1.069338,1.4494 -1.078674,1.52636 -0.337527,2.78241 1.504492,2.54973 6.479174,7.52852 12.552815,12.56317 3.399894,2.81829 6.181625,5.21208 6.181625,5.31954 0,0.34551 -2.295802,-0.66456 -3.565589,-1.56874 -2.366227,-1.6849 -2.79133,-1.10922 -3.940451,5.33616 -2.000423,11.22031 -1.805865,20.24726 0.659927,30.61933 0.899361,3.78304 1.65943,7.97656 1.689046,9.31893 0.05554,2.51724 0.309344,2.76112 2.10338,2.02111 0.497337,-0.20515 0.79166,-0.0156 0.956911,0.61634 0.313875,1.20026 1.428126,1.16185 2.297395,-0.0792 0.595102,-0.84963 0.820518,-0.91325 1.572293,-0.44376 1.222874,0.7637 2.244748,0.6837 2.918697,-0.2285 0.459684,-0.6222 0.685545,-0.66631 1.136128,-0.22189 1.044624,1.03035 2.162949,0.65045 2.460187,-0.83571 0.165017,-0.82509 0.61158,-1.47764 1.098302,-1.60491 0.97073,-0.25386 1.008437,-0.91403 0.221782,-3.88293 -0.412292,-1.55602 -0.47732,-3.01412 -0.217708,-4.88134 0.691056,-4.97028 0.908116,-13.29752 0.451111,-17.30659 -0.250395,-2.1966 -0.285806,-4.16841 -0.07869,-4.38182 0.577231,-0.59474 1.775637,3.88572 2.313348,8.64886 0.408652,3.61996 0.357895,5.06681 -0.334714,9.54081 -0.953739,6.16082 -0.977169,7.69494 -0.15749,10.31112 0.575253,1.83602 0.555621,1.97104 -0.399028,2.74406 -0.552225,0.44717 -1.211105,1.407 -1.464176,2.13295 -0.540231,1.54971 -1.555949,1.90976 -5.838382,2.06955 -1.64779,0.0615 -3.301158,0.36506 -3.674151,0.67462 -0.523311,0.43431 -0.933264,0.4466 -1.795304,0.0538 -0.614423,-0.27995 -1.79487,-0.50899 -2.62322,-0.50899 -0.828346,0 -1.642536,-0.2208 -1.809318,-0.49065 -0.166778,-0.26985 -0.668433,-2.51638 -1.114788,-4.99228 -1.597255,-8.85985 -3.371494,-16.73563 -3.772918,-16.74784 -0.530367,-0.0161 -2.222679,7.19421 -2.822179,12.02432 -0.664306,5.35219 -0.570762,12.16682 0.212622,15.49024 1.835998,7.78899 6.912229,13.2068 14.791785,15.78712 2.882717,0.944 7.850391,0.79749 20.789059,-0.61313 9.374562,-1.02205 7.973932,-1.09512 24.974512,1.30261 7.25957,1.02386 13.69193,0.88202 17.32793,-0.3821 z m -28.3315,-19.85616 c -0.65148,-0.45631 -1.44206,-0.6032 -2.26903,-0.42156 -1.03847,0.22808 -1.4451,0.0551 -2.23676,-0.95129 -0.53215,-0.67652 -1.55667,-1.47775 -2.276696,-1.7805 -1.77646,-0.74694 -1.981933,-1.55121 -1.15059,-4.50365 0.39002,-1.38513 0.8273,-4.41549 0.97174,-6.73413 0.631976,-10.14546 4.114716,-23.96296 6.039926,-23.96296 0.26522,0 0.35643,0.32782 0.20268,0.72847 -1.96264,5.11455 -3.68862,14.00557 -4.25358,21.91139 -0.23839,3.33589 -0.74078,6.93636 -1.11642,8.00106 -0.787166,2.23105 -0.566916,3.28046 0.62317,2.96924 0.60649,-0.1586 1.01682,0.18257 1.54059,1.28092 0.78387,1.6438 1.77356,1.89349 3.02307,0.7627 0.44633,-0.40393 0.81151,-0.51804 0.81151,-0.25357 0,0.59036 1.24099,1.8755 1.81108,1.8755 0.22902,0 0.75392,-0.39419 1.16644,-0.87599 0.69291,-0.80925 0.81024,-0.82149 1.54049,-0.16062 0.67905,0.61452 0.89543,0.62853 1.53531,0.0994 0.40968,-0.33877 1.26211,-0.61594 1.8943,-0.61594 0.91739,0 1.15914,-0.22397 1.19754,-1.10939 0.0265,-0.61018 0.0764,-1.43324 0.11095,-1.82904 0.0346,-0.39581 1.09284,-2.29288 2.35176,-4.2157 1.25891,-1.92284 2.93418,-4.90638 3.72281,-6.63009 1.74293,-3.80952 4.36465,-11.83478 5.1011,-15.61478 0.59251,-3.04125 1.31239,-3.69034 1.31239,-1.18332 0,2.72512 -3.33539,14.85236 -4.9938,18.15709 -0.48992,0.97626 -2.06288,3.59048 -3.49546,5.80936 -2.45474,3.80207 -3.26813,6.08954 -2.07636,5.83929 0.99114,-0.20811 0.85075,1.33713 -0.23628,2.60089 -1.01185,1.17633 -1.1622,1.21939 -2.2415,0.64177 -0.87852,-0.47017 -1.39711,-0.50232 -2.15532,-0.13364 -1.85777,0.90334 -5.36065,1.06566 -6.45506,0.2991 z m 8.78478,-70.31312 c -2.31713,-0.30158 -4.26709,-1.24929 -5.60246,-2.7229 -1.5474,-1.70758 -1.94195,-2.84319 -1.93169,-5.55997 0.0177,-4.689186 2.35066,-7.877839 6.58903,-9.005842 5.43026,-1.445215 11.16787,3.054065 11.14182,8.737112 -0.0259,5.65638 -4.38069,9.30856 -10.1967,8.5516 z m 4.40855,-1.53002 c 3.1877,-1.61532 4.02286,-2.89918 4.02286,-6.18416 0,-2.16198 -0.22506,-3.05278 -1.09458,-4.332387 -3.08785,-4.544184 -9.55675,-5.006474 -12.37685,-0.884491 -2.11243,3.087638 -1.9209,7.017118 0.48117,9.871828 2.32884,2.76766 5.46728,3.30286 8.9674,1.52921 z m -39.4892,-4.11105 c -1.69446,-0.44545 -3.514305,-0.55108 -6.088095,-0.35339 -3.640606,0.27962 -3.682165,0.27098 -4.992281,-1.03913 -2.041164,-2.04118 -1.702918,-3.07649 0.45392,-1.38939 1.217651,0.95246 2.993408,1.11247 5.22932,0.47122 1.025561,-0.29412 2.170503,-0.22901 3.901607,0.22188 3.768681,0.98162 6.094605,0.83837 7.650963,-0.47122 2.056159,-1.73015 2.989281,-1.40385 1.611326,0.56346 -1.494284,2.13339 -4.402451,2.88098 -7.76676,1.99657 z m -5.954279,-9.595997 c -1.342196,-0.981438 -0.556287,-2.061084 1.500324,-2.061084 2.169428,0 2.739743,0.75624 1.392839,1.8469 -1.201414,0.972847 -1.795486,1.016824 -2.893163,0.214184 z m 28.165939,-3.466378 c -1.98851,-0.560427 -4.277936,-2.75712 -4.928745,-4.729089 -0.708518,-2.146836 -0.241596,-6.384117 0.908569,-8.245115 1.919536,-3.105887 7.104426,-4.305682 10.693736,-2.474557 3.59983,1.836503 5.3308,6.798259 3.78433,10.847652 -1.55418,4.069553 -5.76716,5.923118 -10.45789,4.601109 z m 2.73855,-6.873014 c 0.53048,-0.480081 0.81152,-1.353818 0.81152,-2.523011 0,-3.45812 -3.2534,-5.067237 -5.56715,-2.753481 -1.711216,1.711217 -1.326396,4.89955 0.6858,5.682003 1.31353,0.510774 3.27309,0.315525 4.06983,-0.405511 z m -44.88227,6.403251 c -4.145995,-2.188394 -4.170321,-9.868623 -0.04228,-13.342156 1.883923,-1.585215 3.123184,-1.847973 5.005781,-1.061376 4.411618,1.843293 4.767433,11.046939 0.534306,13.820593 -1.576655,1.033066 -4.131776,1.303985 -5.49782,0.582939 z m 4.588382,-5.929957 c 1.079433,-0.414217 1.773724,-3.039856 1.127967,-4.265672 -0.988405,-1.876241 -1.782502,-2.082926 -3.06712,-0.798308 -0.576109,0.57611 -0.887517,1.479194 -0.887517,2.573799 0,2.337001 0.978794,3.199281 2.82667,2.490181 z M 53.625356,66.859867 c -0.473411,-0.299296 -0.10371,-0.420433 1.297984,-0.425293 2.107936,-0.0074 2.242905,0.156207 0.477049,0.577951 -0.612196,0.146213 -1.410961,0.07752 -1.775033,-0.152658 z M 165.89929,153.23456 c -8.8e-4,-0.54326 -1.78473,-1.33824 -11.75373,-5.23748 -3.65811,-1.43082 -6.89864,-2.84901 -7.20117,-3.15154 -0.30253,-0.30252 -0.66414,-1.14644 -0.80358,-1.87538 -0.23243,-1.21491 0.30212,-1.93538 6.41563,-8.64734 3.66805,-4.02711 6.6732,-7.46521 6.67814,-7.64024 0.0131,-0.46602 -21.63231,-7.29005 -21.947,-6.91911 -0.21829,0.25728 3.64496,13.43996 4.85187,16.55627 2.79818,7.22495 6.50671,18.37561 7.57562,22.77805 0.63231,2.60423 1.34799,5.49415 1.59041,6.42206 l 0.44076,1.68708 7.07683,-6.7383 c 3.89226,-3.70607 7.07656,-6.9614 7.07622,-7.23407 z m 14.69771,6.37351 c 5.21826,-3.24015 9.74112,-6.12216 10.05081,-6.40446 0.43824,-0.39947 -1.60165,-1.73773 -9.20059,-6.03602 -5.37002,-3.03752 -9.75992,-5.62261 -9.75533,-5.74463 0.004,-0.12204 6.183,-4.01473 13.72981,-8.65041 7.54681,-4.63569 13.55787,-8.59214 13.35791,-8.79209 -0.19996,-0.19997 -6.42736,-3.53329 -13.83867,-7.40739 -7.41128,-3.87409 -13.53286,-7.21715 -13.60348,-7.42902 -0.0706,-0.21186 7.47468,-6.23165 16.76733,-13.377304 9.29267,-7.14565 16.8346,-13.167056 16.75986,-13.380904 -0.0747,-0.213851 -6.526,-4.880814 -14.33615,-10.371028 -21.72077,-15.268818 -23.09639,-16.195655 -23.54499,-15.863586 -0.22988,0.170167 -2.50845,2.502087 -5.0635,5.182037 -2.55503,2.679951 -6.74047,7.06924 -9.30094,9.753978 -2.56048,2.684738 -6.62491,6.896135 -9.03208,9.358656 l -4.37667,4.47731 -0.11647,8.169804 c -0.0754,5.284364 -0.47656,10.957107 -1.13608,16.061747 -0.56079,4.34056 -0.94328,7.95197 -0.84995,8.02533 0.0933,0.0734 5.36165,1.89371 11.70739,4.0452 6.34575,2.15149 11.76349,4.0316 12.03943,4.17801 0.29877,0.15855 -2.33104,3.67649 -6.50185,8.69764 -3.85196,4.63728 -6.86528,8.57932 -6.69627,8.7601 0.16901,0.18077 4.97973,2.23208 10.6905,4.55845 5.71077,2.32637 10.45542,4.30197 10.54368,4.39023 0.0883,0.0883 -0.85267,1.31819 -2.09092,2.73322 -1.23826,1.41501 -2.1969,2.69656 -2.13032,2.84787 0.0666,0.1513 1.21936,2.11982 2.56172,4.37446 1.74802,2.93599 2.64464,4.04752 3.15938,3.91668 0.39529,-0.10042 4.98818,-2.83373 10.20644,-6.07388 z M 51.439562,110.69274 c 1.080559,-1.49168 1.298654,-2.2199 1.282487,-4.28234 -0.03154,-4.02272 -1.713337,-7.588257 -3.579257,-7.588257 -1.103782,0 -1.448684,2.191497 -1.176457,7.475137 0.217296,4.21742 0.962096,6.94008 1.763084,6.44504 0.224497,-0.13875 0.994063,-1.06106 1.710143,-2.04958 z"
       id="path837"
       inkscape:connector-curvature="0" />
  </g>
</svg>
